<?xml version="1.0" encoding="UTF-8"?>
<svg width="60px" height="60px" viewBox="0 0 60 60" version="1.1" xmlns="http://www.w3.org/2000/svg" xmlns:xlink="http://www.w3.org/1999/xlink">
    <!-- Generator: Sketch 61.2 (89653) - https://sketch.com -->
    <title>email (1)</title>
    <desc>Created with Sketch.</desc>
    <g id="Page-1" stroke="none" stroke-width="1" fill="none" fill-rule="evenodd">
        <g id="email-(1)" fill="#FFFFFF" fill-rule="nonzero">
            <path d="M24,0 C37.254834,0 48,10.745166 48,24 C48,37.254834 37.254834,48 24,48 C10.745166,48 0,37.254834 0,24 C0,10.745166 10.745166,0 24,0 Z M38,18.402004 L24.3350399,25.3934958 C24.1260279,25.5015736 23.8739721,25.5015736 23.6649601,25.3934958 L10.0133349,18.4083686 L10,31.3762016 C10,32.8193703 11.2584832,34 12.8003334,34 L35.1996666,34 C36.73985,34 38,32.8193703 38,31.3746105 L38,18.402004 Z M12.8003334,13.0000329 C11.2819759,12.9928781 10.0397783,14.1524068 10.0133349,15.6015885 L10.0133349,15.6015885 L24.0050006,22.9272208 L38,15.5936328 C37.9799976,14.1663756 36.7281819,13.0016573 35.1996666,13.0016573 L35.1996666,13.0016573 L12.8003334,13.0016573 Z" id="Combined-Shape"></path>
        </g>
    </g>
</svg>