<?xml version="1.0" encoding="UTF-8"?>
<svg width="47px" height="47px" viewBox="0 0 47 47" version="1.1" xmlns="http://www.w3.org/2000/svg" xmlns:xlink="http://www.w3.org/1999/xlink">
    <!-- Generator: Sketch 61.2 (89653) - https://sketch.com -->
    <title>Logo GitHub</title>
    <desc>Created with Sketch.</desc>
    <g id="Page-1" stroke="none" stroke-width="1" fill="none" fill-rule="evenodd">
        <g id="Logo-GitHub" fill="#FFFFFF" fill-rule="nonzero">
            <path d="M46.9360465,24.0535714 C46.9808525,29.1312611 45.4052108,34.0850975 42.4486047,38.1621429 C39.6009041,42.2350845 35.5599669,45.2733978 30.9118605,46.8364286 C30.4978497,46.9546342 30.0537719,46.8725445 29.7062791,46.6135714 C29.4551782,46.369244 29.3206583,46.0249373 29.337907,45.6707143 L29.337907,39.0878571 C29.473254,37.4400975 28.8911169,35.8152201 27.7472093,34.6478571 C28.7969596,34.5424957 29.8378415,34.3591555 30.8616279,34.0992857 C31.866509,33.8233158 32.8298402,33.4080452 33.7248837,32.865 C34.6627248,32.3412972 35.4973554,31.6437439 36.1862791,30.8078571 C36.9429318,29.8291484 37.5111396,28.7122141 37.8606977,27.5164286 C38.3049889,25.9871091 38.5195346,24.3975084 38.4969767,22.8021429 C38.5492466,20.4149994 37.6763452,18.1037457 36.0690698,16.3735714 C36.8244595,14.3008679 36.7400704,12.0051404 35.8346512,9.99642857 C34.9994347,9.84051456 34.1374273,9.96058686 33.3732558,10.3392857 C32.3935439,10.6999481 31.4512441,11.159346 30.5602326,11.7107143 L29.4048837,12.4478571 C25.5713949,11.3506778 21.5174423,11.3506778 17.6839535,12.4478571 C17.3490698,12.2078571 16.9304651,11.9507143 16.3946512,11.6078571 C15.5605763,11.1101027 14.6867426,10.6857226 13.7825581,10.3392857 C12.97183,9.91781298 12.0522155,9.76789099 11.1537209,9.91071429 C10.2509106,11.9391218 10.1726043,14.2517395 10.9360465,16.3392857 C9.35120419,18.0964384 8.4877916,20.410721 8.52488372,22.8021429 C8.50100889,24.3863372 8.71561812,25.9648447 9.16116279,27.4821429 C9.52449174,28.6721573 10.0914414,29.7866184 10.8355814,30.7735714 C11.5092423,31.6341757 12.3466394,32.3457056 13.2969767,32.865 C14.2037677,33.3837946 15.164085,33.797766 16.1602326,34.0992857 C17.1894369,34.3603357 18.2359698,34.5436855 19.2913953,34.6478571 C18.4149961,35.4928316 17.8776959,36.6419148 17.7844186,37.8707143 C17.3439236,38.0854135 16.8760639,38.2354614 16.3946512,38.3164286 C15.8426362,38.4227157 15.2819134,38.4743823 14.7202326,38.4707143 C13.950985,38.4757472 13.2002067,38.2295377 12.5769767,37.7678571 C11.8830277,37.2529195 11.3108235,36.5850755 10.9025581,35.8135714 C10.5330544,35.1673641 10.0301779,34.6115604 9.42906977,34.185 C8.98111234,33.8328507 8.46866248,33.5763546 7.92209302,33.4307143 L7.31930233,33.4307143 C7.017395,33.4128188 6.71515777,33.4595257 6.43186047,33.5678571 C6.2644186,33.6707143 6.21418605,33.7907143 6.28116279,33.9278571 C6.36042971,34.0809561 6.4558861,34.2246755 6.56581395,34.3564286 C6.68709512,34.5007588 6.82166968,34.6327968 6.96767442,34.7507143 L7.18534884,34.8878571 C7.71087562,35.1772586 8.1681031,35.5810068 8.52488372,36.0707143 C8.89859218,36.5589757 9.21865981,37.0878761 9.47930233,37.6478571 L9.78069767,38.3678571 C10.018267,39.1411459 10.4867702,39.8186628 11.1202326,40.305 C11.722752,40.7521174 12.4147743,41.0565963 13.1462791,41.1964286 C13.8401313,41.3451041 14.5471608,41.4197884 15.2560465,41.4192857 C15.8165474,41.4297979 16.3768608,41.3896421 16.9304651,41.2992857 L17.6337209,41.1792857 L17.6337209,45.6707143 C17.6401709,46.0298981 17.4934514,46.3741358 17.2318605,46.6135714 C16.8772821,46.8707985 16.4290488,46.9525214 16.0095349,46.8364286 C11.3758317,45.2533657 7.35725025,42.1961988 4.53976744,38.1107143 C1.56793647,34.0613573 -0.0100576089,29.1182096 0.0523255814,24.0535714 C0.0278728699,19.8364476 1.11540462,15.6907148 3.20023256,12.0535714 C5.24778058,8.40181232 8.20642134,5.37272774 11.7732558,3.27642857 C15.3258145,1.14196187 19.3751348,0.0285365096 23.494186,0.053158381 C27.6132373,0.0285365096 31.6625576,1.14196187 35.2151163,3.27642857 C38.7819508,5.37272774 41.7405915,8.40181232 43.7881395,12.0535714 C45.8745121,15.6900525 46.9621601,19.8362285 46.9360465,24.0535714 Z" id="Path"></path>
        </g>
    </g>
</svg>