<?xml version="1.0" encoding="UTF-8"?>
<svg width="48px" height="49px" viewBox="0 0 48 49" version="1.1" xmlns="http://www.w3.org/2000/svg" xmlns:xlink="http://www.w3.org/1999/xlink">
    <!-- Generator: Sketch 61.2 (89653) - https://sketch.com -->
    <title>linkedin (1)</title>
    <desc>Created with Sketch.</desc>
    <g id="Page-1" stroke="none" stroke-width="1" fill="none" fill-rule="evenodd">
        <g id="linkedin-(1)" fill="#FFFFFF" fill-rule="nonzero">
            <path d="M11.9995868,3.26135278 C19.4253021,-1.0260318 28.57427,-1.0260318 35.9999853,3.26135278 C43.4257006,7.54873735 47.9995722,15.4721108 47.9995722,24.0466611 C47.9995722,32.6212115 43.4257006,40.5445849 35.9999853,44.8319694 C28.57427,49.119354 19.4253021,49.119354 11.9995868,44.8319694 C4.57387156,40.5445849 -4.26680913e-12,32.6212115 -4.26680913e-12,24.0466611 C-4.26680913e-12,15.4721108 4.57387156,7.54873735 11.9995868,3.26135278 Z M17.6560871,18.6184946 L11.9211743,18.6184946 L11.9211743,35.8724318 L17.6560871,35.8724318 L17.6560871,18.6184946 Z M31.7356079,18.2133501 C28.6873981,18.2133501 27.3277895,19.8904002 26.5654162,21.0634797 L26.5654162,21.0634797 L26.5654162,18.6184946 L20.8279366,18.6184946 C20.904944,20.2369335 20.8279366,35.872004 20.8279366,35.872004 L20.8279366,35.872004 L26.5649884,35.872004 L26.5649884,26.2358105 C26.5649884,25.7185775 26.6039199,25.2064782 26.75494,24.8376983 C27.17078,23.805799 28.1124094,22.7401021 29.6974785,22.7401021 C31.7745394,22.7401021 32.6027969,24.3230321 32.6027969,26.6409551 L32.6027969,26.6409551 L32.6027969,35.8724318 L38.3394209,35.8724318 L38.3394209,25.9778357 C38.3394209,20.6792984 35.5098265,18.2133501 31.7356079,18.2133501 Z M14.8264927,10.3016947 C12.8640873,10.3016947 11.5802027,11.5898574 11.5802027,13.2823091 C11.5802027,14.938824 12.826867,16.264207 14.7511965,16.264207 L14.7884168,16.264207 C16.7893259,16.264207 18.0334234,14.938824 18.0334234,13.2823091 C17.9953475,11.5898574 16.789326,10.3016947 14.8264927,10.3016947 Z" id="Combined-Shape"></path>
        </g>
    </g>
</svg>