<?xml version="1.0" encoding="UTF-8"?>
<svg width="99px" height="100px" viewBox="0 0 99 100" version="1.1" xmlns="http://www.w3.org/2000/svg" xmlns:xlink="http://www.w3.org/1999/xlink">
    <!-- Generator: Sketch 61.2 (89653) - https://sketch.com -->
    <title>design@1x</title>
    <desc>Created with Sketch.</desc>
    <g id="Page-1" stroke="none" stroke-width="1" fill="none" fill-rule="evenodd">
        <g id="CV_Richard-Pan_Digital-Design-Manager" transform="translate(-698.000000, -1691.000000)" fill="#606060">
            <g id="design" transform="translate(698.000000, 1691.000000)">
                <path d="M13.7994749,37.3867782 L22.8677298,28.2743166 L13.7994749,37.3867782 Z M44.9670616,23.2811775 L23.8692959,2.00350537 C21.4853315,-0.400691834 17.6085957,-0.400691834 15.2246313,2.00350537 L1.85012108,15.4921462 C-0.518222367,17.8807764 -0.518222367,21.7416397 1.85012108,24.1302699 L10.7204345,33.0763011 L19.1809541,24.5745038 C19.9354352,23.8164102 21.1593435,23.8157234 21.9143947,24.5731302 C22.6695601,25.3304226 22.6702442,26.5590768 21.915763,27.3171704 L13.447604,35.8266367 L22.9875664,45.4481187 C23.3489009,45.8125714 23.9365685,45.8125714 24.2979031,45.4481187 L44.9670616,24.6026617 C45.3294224,24.2372935 45.3294224,23.646546 44.9670616,23.2811775 Z M56.1973949,79.9916853 L65.2655358,70.8792237 L56.1973949,79.9916853 Z M70.3299209,94.193321 L79.3981758,85.0808595 L70.3299209,94.193321 Z M97.2273973,75.9698859 L74.7921577,53.3431436 C74.3901174,52.9377129 73.7364314,52.9377129 73.3343911,53.3431436 L52.8126625,74.0400266 C52.4095961,74.446602 52.4095961,75.1037386 52.8126625,75.5101994 L55.3642387,78.0834597 L63.8981882,69.5079478 C64.6526694,68.7498541 65.8763496,68.7491673 66.6316289,69.5065742 C67.3869082,70.263981 67.3873643,71.4925208 66.6329972,72.2506143 L58.0914082,80.8339098 L69.471224,92.3108497 L78.0307143,83.7095833 C78.7851955,82.9513753 80.0088757,82.9509174 80.764155,83.7082097 C81.5194343,84.4656166 81.5198904,85.6941564 80.7655233,86.4522499 L72.1982795,95.0612998 L75.2081087,98.0967648 C77.5920731,100.501077 81.4688088,100.500962 83.8527733,98.0967648 L97.2272834,84.6080095 C99.5958549,82.2194938 99.5958549,78.3585161 97.2273973,75.9698859 Z M0.0213280345,97.1644574 C-0.128838434,98.2512909 0.527812138,98.9111747 1.60930735,98.760197 L22.0791561,93.2067577 C23.3715914,93.0263628 24.3827352,91.3027672 23.6361215,90.552686 L8.18824194,75.0297949 C7.44174224,74.2797136 5.72662873,75.2958087 5.54715878,76.5945148 L0.0213280345,97.1644574 Z M27.6879945,83.919281 L14.3863442,70.5660509 C12.6988239,68.8719869 12.6988239,66.1000176 14.3863442,64.4059536 L62.2142028,16.3926328 C63.9017231,14.6985688 66.6629851,14.6985688 68.3505053,16.3926328 L81.6521557,29.745863 C83.339676,31.439927 83.339676,34.2118963 81.6521557,35.9059603 L33.824297,83.919281 C32.1367767,85.613345 29.3754008,85.613345 27.6879945,83.919281 Z M86.3217978,25.1392681 L72.9393061,11.7048831 C71.2989908,10.0582072 71.2989908,7.36361532 72.9393061,5.71693937 L77.3750899,1.26395492 C79.0154052,-0.382721029 81.6995885,-0.382721029 83.3399038,1.26395492 L96.7223955,14.6983399 C98.3627108,16.3450159 98.3627108,19.0396077 96.7223955,20.6862837 L92.2866117,25.1392681 C90.6462964,26.7859441 87.9621131,26.7859441 86.3217978,25.1392681 Z" id="Shape"></path>
            </g>
        </g>
    </g>
</svg>